<?xml version="1.0" standalone="no"?>
<!DOCTYPE svg PUBLIC "-//W3C//DTD SVG 20010904//EN"
 "http://www.w3.org/TR/2001/REC-SVG-20010904/DTD/svg10.dtd">
<svg version="1.0" xmlns="http://www.w3.org/2000/svg"
 width="1026.000000pt" height="1026.000000pt" viewBox="0 0 1026.000000 1026.000000"
 preserveAspectRatio="xMidYMid meet">
<metadata>
Created by potrace 1.11, written by Peter Selinger 2001-2013
</metadata>
<g transform="translate(0.000000,1026.000000) scale(0.100000,-0.100000)"
fill="#000000" stroke="none">
<path d="M5008 10255 c-2 -1 -73 -5 -158 -9 -85 -3 -166 -8 -180 -10 -14 -2
-56 -7 -94 -11 -38 -4 -79 -8 -90 -10 -12 -2 -43 -6 -71 -10 -114 -14 -438
-75 -500 -95 -16 -5 -41 -11 -55 -14 -143 -28 -510 -152 -755 -256 -120 -51
-445 -212 -485 -240 -15 -11 -31 -20 -34 -20 -3 0 -45 -24 -93 -53 -787 -479
-1414 -1129 -1851 -1920 -206 -372 -364 -771 -476 -1197 -27 -104 -91 -408
-100 -480 -12 -90 -18 -135 -22 -160 -2 -14 -6 -56 -9 -95 -4 -38 -8 -76 -10
-82 -7 -22 -19 -315 -19 -463 1 -350 24 -602 90 -955 33 -179 47 -241 89 -396
389 -1429 1381 -2619 2723 -3269 68 -33 126 -60 128 -60 2 0 27 -11 56 -24
339 -155 833 -297 1253 -361 282 -42 474 -57 760 -58 301 -1 424 7 750 49 157
20 444 79 630 130 446 122 902 317 1285 549 216 131 533 359 686 494 409 362
662 647 933 1051 141 211 223 352 329 565 110 221 140 291 225 521 115 308
223 738 262 1039 3 22 7 56 10 75 2 19 7 67 11 105 3 39 7 81 9 94 18 110 24
553 11 761 -9 142 -27 309 -52 480 -66 455 -237 1009 -436 1413 -26 54 -48
100 -48 102 0 2 -28 55 -61 117 -334 615 -777 1147 -1315 1579 -237 190 -521
379 -760 505 -60 31 -113 60 -119 64 -20 15 -284 134 -410 185 -264 107 -659
226 -900 270 -215 39 -329 57 -460 70 -33 3 -73 8 -90 10 -75 11 -578 28 -587
20z"/>
</g>
</svg>
